PathFileType	3	(X/Y/Z)	results
DataRate	CameraRate	NumFrames	NumMarkers	Units	OrigDataRate	OrigDataStartFrame	OrigNumFrames
30.0	30.0	4	85	mm	30.0	1	239
Frame#	Time	head			nose			neck			shoulder_r			elbow_r			wrist_r			shoulder_l			elbow_l			wrist_l			hip_r			knee_r			ankle_r			hip_l			knee_l			ankle_l			heel_r			heel_l			mtoe_r			ltoe_r			mtoe_l			ltoe_l			asis_l			asis_r			psi_r			psi_l			mhnd_r			lhnd_r			mhnd_l			lhnd_l			l_lat_knee			r_med_wrist			l_lat_ankle			r_med_ankle			r_lat_knee			xiphoid			l_med_ankle			r_med_knee			l_med_elbow			navel			r_lat_elbow			r_lat_wrist			l_med_wrist			l_lat_elbow			l_med_knee			r_med_elbow			r_lat_ankle			l_lat_wrist			chin			T10			r_eye			l_eye			l_ear			r_ear			spinal_cord_8			spinal_cord_12			spinal_cord_27			spinal_cord_33			up_arm_r_0			up_arm_r_5			up_arm_l_0			up_arm_l_5			front_torso_11			front_torso_7			front_torso_4			front_torso_1			front_torso_10			thigh_r_2			thigh_r_3			thigh_l_1			thigh_l_5			shank_l_0			shank_l_4			shank_r_1			shank_r_2			foot_r_1			foot_r_3			foot_r_5			foot_r_6			foot_r_7			foot_l_1			foot_l_7			foot_l_0			foot_l_4			foot_l_5			foot_l_6			
		X1	Y1	Z1	X2	Y2	Z2	X3	Y3	Z3	X4	Y4	Z4	X5	Y5	Z5	X6	Y6	Z6	X7	Y7	Z7	X8	Y8	Z8	X9	Y9	Z9	X10	Y10	Z10	X11	Y11	Z11	X12	Y12	Z12	X13	Y13	Z13	X14	Y14	Z14	X15	Y15	Z15	X16	Y16	Z16	X17	Y17	Z17	X18	Y18	Z18	X19	Y19	Z19	X20	Y20	Z20	X21	Y21	Z21	X22	Y22	Z22	X23	Y23	Z23	X24	Y24	Z24	X25	Y25	Z25	X26	Y26	Z26	X27	Y27	Z27	X28	Y28	Z28	X29	Y29	Z29	X30	Y30	Z30	X31	Y31	Z31	X32	Y32	Z32	X33	Y33	Z33	X34	Y34	Z34	X35	Y35	Z35	X36	Y36	Z36	X37	Y37	Z37	X38	Y38	Z38	X39	Y39	Z39	X40	Y40	Z40	X41	Y41	Z41	X42	Y42	Z42	X43	Y43	Z43	X44	Y44	Z44	X45	Y45	Z45	X46	Y46	Z46	X47	Y47	Z47	X48	Y48	Z48	X49	Y49	Z49	X50	Y50	Z50	X51	Y51	Z51	X52	Y52	Z52	X53	Y53	Z53	X54	Y54	Z54	X55	Y55	Z55	X56	Y56	Z56	X57	Y57	Z57	X58	Y58	Z58	X59	Y59	Z59	X60	Y60	Z60	X61	Y61	Z61	X62	Y62	Z62	X63	Y63	Z63	X64	Y64	Z64	X65	Y65	Z65	X66	Y66	Z66	X67	Y67	Z67	X68	Y68	Z68	X69	Y69	Z69	X70	Y70	Z70	X71	Y71	Z71	X72	Y72	Z72	X73	Y73	Z73	X74	Y74	Z74	X75	Y75	Z75	X76	Y76	Z76	X77	Y77	Z77	X78	Y78	Z78	X79	Y79	Z79	X80	Y80	Z80	X81	Y81	Z81	X82	Y82	Z82	X83	Y83	Z83	X84	Y84	Z84	X85	Y85	Z85	
1	0.03333333333333333	7.096716867913494	1678.7404370081815	-484.5780435304128	-10.21820158203925	1511.3073795285663	-604.4550520805478	15.227215465616124	1356.4944213727422	-429.43217046152165	208.06275794161948	1332.4824091473301	-415.70929250623453	271.30422315279225	1078.045026660303	-420.5401378527519	121.00918692847814	1062.4662597497206	-585.7910122895239	-140.62987730406465	1300.8140359957176	-416.7051050626008	-228.08726553405188	1047.0098135443955	-474.8256993735914	-28.014498251458853	1079.108447967483	-594.4902797317533	143.28675449456563	866.0899881667328	-454.71301030583527	201.91895975982334	486.7718284109493	-410.43094158136387	299.55011139888614	111.58919693416736	-371.2123635042128	-68.25285099897036	862.18825573361	-458.44154921051324	-66.35286940525114	476.6247748816702	-394.8274765216031	-111.00635328063713	92.4609136675072	-357.7460118891186	306.5457109913925	57.390574009578756	-352.575922983332	-122.38087197006686	28.32250088752636	-333.17117606916236	313.5559912140708	29.37292959647855	-577.8144184264082	377.48047943648464	31.191742408010104	-514.5450506135397	-88.68178922792839	40.83838503287302	-558.3216598361363	-172.74559644782775	18.340371746729833	-511.91880096459874	-116.19644539055655	939.244319546888	-487.25875621350815	193.56913676227626	940.8566472464855	-479.04488817047496	87.07363327563259	920.3556826109782	-329.29475783418985	-18.353837895499396	919.7007650116925	-337.48554478162674	77.53315237007425	1027.1684780936448	-633.1786562877148	66.62521219501424	1076.034430498171	-652.2096255610419	31.556313931629262	1059.6136290919776	-637.9170822114279	44.85251535170041	1111.1143172419468	-632.7559319923423	-116.7262272389172	470.83984531017103	-389.1014466870921	133.0887081513112	1037.2084028804213	-582.6647104947034	-164.85837724221352	84.31169906306057	-349.6194736910076	270.3393502185847	92.44928498840949	-387.2864335544071	244.39824728714353	484.76023425885836	-400.39270219962077	19.52991614540906	1186.1456719536827	-515.8049924317419	-83.19840728222655	76.28849801135567	-371.83124769944055	165.8755496421607	473.52608299987816	-428.07529940266295	-218.371390259667	1045.1829768948087	-438.3735504369195	27.82575810539322	970.4812115993863	-521.2909859477368	294.87843999393016	1091.2093705524048	-450.1773004521051	114.9459188928052	1090.238079614313	-573.2570915165566	-43.316850608550894	1053.1577642165062	-607.308271532794	-243.7726142914602	1071.6702263433544	-504.71113655724287	-27.20702884471249	470.176547861843	-425.56871095240064	247.25255664183052	1077.760281445076	-392.4810386869684	349.9184837401178	106.09031418528004	-367.4774988193402	-34.047445937078564	1107.4343318106178	-582.067248527544	0.4720859677172784	1437.8304617563217	-588.4396496026986	32.381453438522634	1205.8234268523784	-324.6509220863109	18.480970803224317	1544.5036303505901	-610.7594326978125	-46.377347083787896	1538.5794295282883	-594.6760942157567	-71.29410959455404	1528.2229468865703	-486.5797840398448	90.41896175448521	1539.8772148626656	-524.1400107999981	15.19002206197614	1416.7115977418214	-383.91767813428646	24.419725426583014	1303.9119207307224	-328.563891333661	51.8715809009178	1057.0370048564264	-335.00948388476763	31.903402657312036	1195.7909106058437	-337.0102141349475	216.18197070563238	1201.8231479498024	-457.944151684701	278.54549521650006	1188.295028832806	-396.5152190562492	-175.09358146707177	1260.7028581807856	-451.47754237674184	-207.61281923968284	1109.3056033676692	-415.93946279931833	78.13820332126875	1002.0906831191692	-487.2732571716584	23.31241348642016	1099.5473456869865	-542.3742098769827	-49.1343451295106	1226.86195202669	-518.5347925992046	-43.75661408861269	1028.635139740141	-484.09278301005844	95.07914026862623	1274.6048341113046	-538.635162541094	159.45723273471697	656.5742926848181	-438.56194220235597	253.75808525016453	638.7648375363457	-404.881683201647	-21.22464859224416	584.7681164844456	-424.3705502461884	-170.35750009451436	756.3370906779543	-440.8015990361188	-167.7626653940108	192.6139573122217	-372.6425860217759	-35.916850662223446	321.91794183174136	-387.83930212949576	299.8427395819383	341.3669906365341	-385.60333517264553	214.94835884699393	280.09553979610587	-399.51210665348054	336.2733267483826	24.04167321098177	-558.0570668058909	359.86491773381715	27.681331752955092	-540.417522416478	297.58904907983697	47.345387826402295	-496.4693913918833	334.09464225123287	55.799703623813905	-482.1295613894544	364.9890508189675	43.79632459087263	-467.54840338310504	-139.5219802977662	23.041755507347528	-538.5247724991028	-171.2137256072884	46.01508046313644	-433.9330362298007	-155.19676767028278	21.44393505553982	-532.2840136337395	-120.33145927610992	24.937210732458205	-545.5471625549008	-134.6335465579653	36.91810695052746	-487.13461871028005	-108.24416384652619	49.587578595649525	-453.47205358616407	
2	0.06666666666666667	19.31262409900351	1679.9892105596168	-487.7322855699649	0.7177964626894004	1508.9325833585838	-602.1787577419477	22.90735537032582	1360.028208044406	-425.03754800484734	225.7341992012013	1333.4620725611842	-422.9758497325221	285.4321050569022	1078.4461716375247	-435.7919297964843	128.2371689168532	1069.4745756669722	-595.0037695318098	-141.15179652947134	1306.2589017208643	-407.5792649673782	-223.2447801256805	1051.9002152258913	-470.8705141414804	-26.4641866953185	1080.981965032198	-596.6111050802642	153.8307675158017	868.5544326576052	-453.46249563680163	203.76593804873005	488.3605791436392	-406.74822391902984	299.5448752330947	112.08116897790677	-374.00457910407454	-57.69390181045119	862.7292974890316	-454.69224251783595	-61.76559018225644	476.42304154663424	-395.57185905146474	-110.22480748544812	92.69738636124441	-358.7321153582796	306.77740186601744	57.31733344318347	-355.9671877928638	-122.36153808879742	28.78708874420937	-334.1314973910261	316.72583101905593	36.32299261785075	-581.8582647910862	380.0786436032836	43.987878471780874	-518.4521780131205	-87.49992719042044	39.936847354773555	-559.1767524900837	-172.07664702081846	18.812165870549535	-513.0612898717803	-106.64506144485286	938.6938453867837	-484.689376817162	203.16619432827312	943.1861835377706	-480.0431084716495	98.54122919891797	925.1520228401621	-328.66586754948025	-6.961220622314281	923.394901581873	-335.63832708841306	82.2524012743973	1036.0914278982782	-641.4004759276921	71.41517655705931	1085.5919756594787	-658.7582576555935	31.381267420546255	1060.6213330595103	-641.9317946662838	45.720634162937316	1111.866872119302	-637.0303039128471	-112.2539059442196	471.3168464859626	-390.4209774633525	139.99841198861014	1043.9537602347305	-593.0015031669942	-164.22735340213336	85.0346458328795	-351.14935539741197	268.8270104902013	93.26407479480586	-387.4325453739214	246.43668612071815	485.2715566140971	-397.74004204676214	28.494073514328832	1190.6969330747477	-513.3165485338869	-82.4206887701445	76.26816290969867	-372.5246624719461	167.0286480654937	475.80298282446535	-423.48991564783523	-213.10612792796263	1049.4427620269341	-434.57088078270345	38.354384514025575	975.1734336498573	-521.2204742187063	307.97781658722306	1091.9720283094073	-466.0598525796264	123.17205840849287	1097.0158546306095	-581.5516702015184	-42.60443035757608	1055.3444550089168	-609.0252704950012	-239.81688932531756	1076.8819293746503	-500.00099020315105	-22.354928861794043	469.84036116555563	-425.9172042807754	262.51346614471754	1077.8362829825464	-406.8050221651275	349.97333684777954	105.92963712929549	-374.5419552265864	-31.61691450737458	1109.3626809667985	-583.9198397096507	8.472168890316	1435.7890020832344	-583.2177705260042	41.090452222421646	1208.3166567246633	-321.94483892084554	30.674189835072884	1540.9702835525009	-608.626939005595	-34.85521532275504	1537.652045220471	-594.6534753949812	-63.78694671672566	1532.0066693150834	-487.2104732505554	99.4114820488449	1537.2592384214963	-519.4035378406745	22.407425402537562	1419.7279940647798	-378.84919076875485	32.42104929164906	1306.3827909713332	-324.76048082399103	61.663403745198174	1059.8009734458262	-333.9618987630872	40.69231590898776	1198.4205402765042	-334.41642187772345	230.4743329577364	1203.67287557943	-468.29519396009823	295.0505662103614	1188.0465972333643	-409.71650769891653	-175.0298709265206	1266.1762615823118	-442.9548769306152	-203.6176453381444	1113.253894872363	-410.7202122925473	88.41664859994819	1006.7615227870921	-486.81598259780407	32.91907982135198	1104.4324351857817	-540.8548207586983	-40.46156760921315	1230.9436056216318	-515.6345119748042	-33.66901043266292	1032.3861603456235	-483.4189378305796	103.41425640176111	1279.9513405063926	-535.1005392750266	165.03189625026337	658.8508202537093	-435.6272025217586	259.6088678400105	638.9367159658005	-403.95999204304815	-14.826407747287835	584.3177114132309	-423.326893092675	-161.41886840819362	758.096526937396	-439.3915567912106	-165.92950630542862	193.34354883114779	-374.26129905728914	-32.78582576043788	321.45516820827777	-388.187991660863	301.56866139725656	341.7729878125595	-389.5799707695616	215.0162730926112	281.576719707252	-395.8882096301795	339.9414450652779	33.18571388719065	-562.2102288051111	362.9637351917321	39.11297073547379	-544.4393090376901	298.8649597888209	50.116170920175854	-500.0921139069388	334.13828415427895	62.43416540171136	-485.469387996274	366.2537629760569	53.77618665268067	-471.15886103903165	-138.6732776629305	22.938606444628093	-539.5372564145749	-170.4960595723506	46.77004940270526	-435.17756805649026	-154.39636691429058	21.58706360549851	-533.3601327365843	-119.42719598634172	24.53499206060525	-546.4815132324047	-133.8148519774228	36.94722296488017	-488.1801519081015	-107.3970259961244	49.37532740768527	-454.4499871772071	
3	0.1	31.566413632289937	1681.4233955350826	-490.9296611739441	9.923695274188026	1506.8768089178607	-599.4156702220158	30.454616281977536	1361.938973618818	-420.9994923493368	236.26354945243202	1334.7677531010777	-426.89638592522607	298.90136488842893	1080.7849377155885	-445.0742615418707	135.18219744068736	1071.844881121248	-597.5710057449793	-138.85860162139957	1310.472199434598	-403.55723429761645	-214.8286079604048	1054.4882766639637	-467.9324701651697	-22.14424103672541	1083.896246768651	-599.7920635582152	163.36820658440476	870.2172344084444	-453.4649209642053	207.5083496862668	489.70819937002136	-404.16710148576004	299.77962849652556	112.19820082177229	-375.8094270143484	-48.13350251804514	863.4985275409795	-453.33750245711377	-56.99143947092512	477.0011182779028	-395.8880545577654	-109.37836393087045	93.81466917506337	-358.8125063614221	306.62706466089173	57.1829417466619	-358.2553679604388	-122.18312120271035	30.164484671992803	-334.0767276844595	317.53696252730964	39.059953084483375	-584.3505772577943	380.5491159621459	47.678668117212105	-520.7278812392332	-86.7695091216851	39.77519984874432	-559.1067836931395	-171.6252457227614	19.66141884216707	-513.0519318630888	-97.59174332823154	939.0941056163206	-483.4348050679951	212.2207286964985	944.9106713130514	-480.75471985589314	108.62037630990783	927.2552223953684	-328.6299833450819	3.084809501043902	925.0180632218543	-334.93147861082673	87.65595444221577	1038.4733839132898	-642.3960788069642	75.51131348300419	1088.046803407692	-658.6449566251487	34.353227464912685	1063.6032004793942	-646.8116884605757	48.63427957715377	1114.9201416539759	-642.5256153441408	-107.54026800056444	472.5027961525967	-390.8517391667524	147.31553378609507	1046.4470707901514	-596.3957147044191	-163.46913490317237	86.70239767425426	-351.32285375041033	268.53247319274897	93.80346563525333	-388.58555823009715	250.11603425416584	485.97521045543346	-394.98849420940894	37.44882265499964	1193.5800889778636	-511.02082913424675	-81.71576311048729	77.09450255125239	-372.53982585804494	170.70375210724697	477.50480356254366	-421.07082614403384	-203.9663921684284	1051.9742545300037	-431.8466462533968	48.5883874691934	978.2113944446129	-521.1357729989583	319.96952916568694	1094.955755603265	-476.1020785953437	130.37320978160076	1099.1552897498077	-583.5655930040903	-38.558802045872085	1058.1542615644094	-611.6163298456831	-232.63027069352248	1079.2637754427187	-496.50835064005275	-17.586018534199795	470.09465957497554	-426.1564426608813	277.2279280536951	1079.5364024180458	-415.1647298977782	350.1070145132707	105.48477259343653	-377.6105256095896	-27.014609828638182	1112.300299918653	-587.0416467001058	15.763309557063659	1434.294255049508	-577.7984412435344	49.00518947820992	1209.2578345375746	-319.41468795320907	40.69138881533067	1537.9513685119907	-606.7026146704326	-25.02066153209587	1536.6743437882467	-593.2613729779292	-55.037118377789405	1535.5470449355585	-485.9736496536809	108.5211385843759	1535.8118184362988	-516.7362327045865	29.384562380687324	1421.1458890598392	-374.1905736091211	39.78526365446636	1307.2970991931556	-321.2446131392103	70.4914840794388	1060.9965347074676	-332.88652369993196	48.72518012086204	1199.4913137931135	-331.9912010644691	240.89951163474313	1205.5526457059013	-473.8379598007705	308.0836304714286	1190.226284351423	-418.18609744287465	-172.22140673322107	1269.7779842182779	-438.7236951673241	-195.86281409963613	1115.7992921208813	-407.5270458597303	98.29869460253194	1009.7210226735673	-486.1538434063027	42.505342480172374	1107.6366209551952	-539.4400589878967	-31.725186381359453	1233.4548471406572	-513.2587262866429	-23.94765136086039	1034.6115686430132	-483.09414987179673	111.95981634028603	1283.4846417911247	-531.495411082341	171.42990523874002	660.485240939202	-434.3163452758359	265.5531485756182	639.3922247080422	-402.0659645928215	-8.687376519739429	584.4611530443078	-423.0626741208399	-153.14321618427047	760.0577835229536	-438.70982781438255	-164.0385275949249	195.00288811283366	-374.5296910113892	-29.58666895382082	321.75587942274854	-388.31941027295755	304.03016678996784	341.93782973238996	-390.1849620572699	216.6723383960973	282.75272165530146	-394.7052820434238	340.7925809797515	36.315956040536285	-564.6909927733649	363.61684890881565	42.649124766345984	-546.8050325479538	299.16815509363624	51.431635556196824	-502.4696008012592	334.0745040171673	64.51513648947353	-487.63271025593156	366.3834661519126	56.55102312104201	-473.35476846465576	-138.13289990317185	23.343833812865583	-539.4809309385489	-169.9505606249193	48.02779826069258	-435.31802947430714	-153.87990390160954	22.16702911810627	-533.3290160846998	-118.85930860848268	24.72969211378211	-546.3940261255012	-133.25234167165345	37.5878324397754	-488.1907128194254	-106.79197972600699	49.962033043369296	-454.47407408540994	
4	0.13333333333333333	39.96124905444391	1681.5681320412668	-488.9723695685909	19.412593492021042	1506.9142379079346	-597.4984140716017	37.78543955498094	1362.9577155766467	-417.82980865811	240.55243549041472	1336.947283084403	-428.44584722631316	310.41438676335656	1084.8188699357781	-446.1029320129143	142.02247384412252	1068.1469071598842	-592.7499801074472	-131.6605639156776	1311.8563999325065	-403.0764750012428	-203.6037140471243	1054.4338746605604	-466.3315791824246	-14.484319907884318	1087.831940444803	-602.3369845695446	171.65923016928775	870.4434205946543	-453.8592675296411	211.91921526427942	489.7282992225448	-403.07308583988015	301.1297452912027	111.39145475078027	-375.96849128343337	-39.859482903551736	864.3457066778806	-452.9748944730665	-52.187463673056605	477.94751141076415	-395.49466608498756	-108.05743060139692	95.27491707790902	-358.1975717415595	307.65835923341035	56.47536857958618	-358.4028831141214	-121.32023205828841	31.91261713011184	-333.2598079811906	316.0569714774265	36.51516796072114	-584.4505903804181	379.79924063727924	45.09432141714375	-521.5539893092554	-87.43140872190186	39.786469643459284	-558.5919316865711	-172.1914489232871	20.992639806302975	-511.8090593646274	-89.2013128879733	939.9957314463564	-483.12641515365226	220.63431088572406	944.9112605715603	-481.54308653779736	117.51469833695214	928.0148424369663	-329.0060749255118	11.951678213957887	926.0685039230048	-334.9331428618021	94.1869441826455	1032.5441062905172	-635.4804194537138	79.7880070572988	1081.4403121226567	-651.9386672227741	41.36330461143048	1068.723188187093	-650.6123947019636	54.70502670794764	1120.3116232048592	-646.565278738162	-102.7597777719952	473.9280210930421	-390.29411551291344	155.06117441896097	1043.1976571562852	-591.6659408587091	-162.18810390537328	88.67280841918512	-350.53120523391976	269.56283484010766	93.28395374283038	-388.3632118459213	254.50109714335878	485.56589117717124	-393.9165991816055	45.919116866024574	1195.483359250611	-509.39212243106226	-80.5981848951426	78.29372250178545	-372.01247719362874	174.99513579589808	477.8058998952958	-419.93449750914556	-191.92053958718515	1052.0917841351873	-430.49147911137896	58.05634406394318	980.2700089040044	-521.4742632648469	329.9265998097873	1099.263876126181	-478.00936388664365	136.74841672572995	1095.4710463861118	-578.9401247546753	-30.635751743091244	1061.778245947015	-613.8364254822126	-222.529482584485	1078.8747405650593	-494.4698954046711	-12.94718764846803	470.66982219037016	-425.8900563328402	289.8547116730604	1083.2571840106746	-415.43148462221933	351.3685535416625	104.22597216240814	-378.39292170201344	-19.641403296658034	1116.1196614594137	-589.4415129498744	24.45269236067183	1434.3466433651167	-575.631214081741	56.56688671421465	1209.4128070212241	-317.59835261477986	50.47932792318455	1537.8076770800326	-604.268362897743	-15.479227860921839	1536.91196675118	-592.0602527603886	-47.50844922422545	1536.1700795870743	-485.352742984041	116.59707981366768	1535.4914278106905	-513.040733384788	36.24830045228081	1421.7174771143523	-370.47364377505653	46.9210628645358	1307.4235413988727	-318.5507714321929	78.7682094795116	1061.380139237189	-332.36299882127537	56.385192934336104	1199.7636076927306	-330.26689453637596	247.56953425248966	1207.3894162624588	-474.13027511948724	317.1132500283117	1194.8021926933598	-420.73583384471306	-164.90778462679455	1270.5253599723014	-437.6039037774553	-184.6389649376324	1116.0345940692068	-406.22128972879614	107.47300196384951	1011.6677072601101	-485.9794021665709	51.48050612676949	1109.8333862491634	-538.5923585315151	-23.42030603516655	1235.073550311345	-511.56220350619384	-14.894578918965063	1035.9919744370443	-483.227079551657	120.12024374984968	1285.9020737074277	-528.6943022980515	177.5854631317425	660.7162879056419	-433.89485925919627	271.50216347017476	638.7883299079734	-401.59926544558004	-2.957024888380011	584.9469420137639	-422.8259749291619	-145.7951370830403	761.9026724817447	-438.0063183560099	-161.81369892233712	196.97145269504733	-373.7506195644052	-26.220461909238857	322.45201659384173	-387.994271319554	307.2714766771386	341.0893341681074	-390.327582560692	219.3349880701523	282.6948823771798	-393.7862620886613	339.49277594329186	33.727437426004805	-565.0123754678625	362.5544448216904	40.00621055479397	-547.4140732107537	298.6473480211823	49.67319976971628	-502.4826873377198	333.81448721992166	62.576596719822184	-488.11121627102403	366.2031484240263	54.451301820858646	-474.10728946547067	-138.8496326278441	24.106927519865433	-538.5001421228102	-169.5997184602354	49.78349500797461	-434.25659182139196	-154.5647307480154	23.161033994336545	-532.2279784532952	-119.61127305237557	25.213719155778808	-545.5601239080876	-133.41967852607345	38.584582476034676	-487.33070861349034	-106.56333277371813	50.82364094585091	-453.8788706521007	
